<svg xmlns="http://www.w3.org/2000/svg" xmlns:xlink="http://www.w3.org/1999/xlink" width="100%"  viewBox="0 0 1920 1156.706"><defs><style>.a{fill:url(#a);}</style><linearGradient id="a" x1="0.5" x2="0.5" y2="1" gradientUnits="objectBoundingBox"><stop offset="0" stop-color="#fff8da"/><stop offset="1" stop-color="#ffe0c9"/></linearGradient></defs><path class="a" d="M1687.251,15.92C1742.463-6.217,1856.462-13.244,1917-11.825V1117.261s-293.812-95.808-474.571,0-337.681-89.767-459.242-92.615c-200.559-4.7-211.729,112.339-407.5,36.407C302.309,955.026-3,1117.261-3,1117.261V891.154s102.841-61.6,160.958-67.987,184.32,26.432,260.6,26.432,159.048-7.275,217.166-26.432,130.9-90.826,141.8-105.727c28.117-38.445,32.069-69.285,77.924-103.322s95.973-33.819,168.62-47.442c90.808-17.03,152.984-131.471,240.16-135.729s89.424-170.048,150.613-234.1c18.919-19.813,73.849-48.248,94.429-65.986l74.028-58.708C1591.775,65.769,1632.04,38.057,1687.251,15.92Z" transform="translate(3 12)"/></svg>